<svg width="374" height="67" viewBox="0 0 374 67" fill="none" xmlns="http://www.w3.org/2000/svg">
<g clip-path="url(#clip0_4_2)">
<path d="M180.38 35.13C178.55 35.13 177.06 36.62 177.06 38.45C177.06 40.28 178.55 41.77 180.38 41.77C182.04 41.77 183.41 40.54 183.65 38.95H196.28V37.95H183.65C183.41 36.36 182.04 35.13 180.38 35.13Z" fill="black"/>
<path d="M239.91 35.13C238.25 35.13 236.88 36.35 236.64 37.95H210.57V38.95H236.64C236.88 40.54 238.25 41.77 239.91 41.77C241.74 41.77 243.23 40.28 243.23 38.45C243.23 36.62 241.74 35.13 239.91 35.13Z" fill="black"/>
<path d="M33.41 0C31.46 0 29.55 0.18 27.69 0.5L58.78 55.15C63.79 49.31 66.83 41.72 66.83 33.41C66.83 14.96 51.87 0 33.41 0Z" fill="#611FF4"/>
<path d="M0 33.41C0 51.86 14.96 66.82 33.41 66.82C40.15 66.82 46.41 64.82 51.66 61.39L24.38 1.25C10.32 5.19 0 18.09 0 33.41Z" fill="#611FF4"/>
<path d="M116.11 42.85L115.98 44.17L115.88 42.85L109 15.69H107.21L100.33 42.85L100.23 44.17L100.13 42.85L93.13 15.69H89.92L99.41 51.42H101.08L107.98 24.53L108.13 23.14L108.23 24.53L115.18 51.42H116.85L126.3 15.69H123.08L116.11 42.85Z" fill="black"/>
<path d="M143.24 27.6C142.56 26.92 141.76 26.38 140.85 25.99C139.94 25.6 138.96 25.4 137.93 25.4H135.89C134.86 25.4 133.89 25.6 132.97 25.99C132.06 26.38 131.26 26.92 130.58 27.6C129.9 28.28 129.36 29.08 128.97 29.99C128.58 30.9 128.38 31.88 128.38 32.91V44.42C128.38 45.45 128.57 46.42 128.97 47.34C129.36 48.25 129.9 49.05 130.58 49.73C131.26 50.41 132.06 50.95 132.97 51.34C133.88 51.73 134.85 51.93 135.89 51.93H137.93C138.96 51.93 139.93 51.73 140.85 51.34C141.76 50.95 142.56 50.41 143.24 49.73C143.92 49.05 144.46 48.25 144.85 47.34C145.24 46.43 145.44 45.46 145.44 44.42V43.4L142.38 42.9V44.59C142.38 45.21 142.26 45.78 142.03 46.32C141.8 46.86 141.48 47.33 141.08 47.73C140.68 48.13 140.21 48.44 139.67 48.68C139.13 48.91 138.55 49.03 137.94 49.03H135.9C135.29 49.03 134.71 48.91 134.17 48.68C133.63 48.45 133.16 48.13 132.76 47.73C132.36 47.33 132.05 46.86 131.81 46.32C131.58 45.78 131.46 45.2 131.46 44.59V38.91H145.44V32.9C145.44 31.87 145.24 30.9 144.85 29.98C144.46 29.07 143.92 28.27 143.24 27.59V27.6ZM142.37 36.52H131.46V32.73C131.46 32.12 131.58 31.54 131.81 31C132.04 30.46 132.36 29.99 132.76 29.59C133.16 29.19 133.63 28.88 134.17 28.64C134.71 28.41 135.29 28.29 135.9 28.29H137.94C138.55 28.29 139.13 28.41 139.67 28.64C140.21 28.87 140.68 29.19 141.08 29.59C141.48 29.99 141.79 30.46 142.03 31C142.26 31.54 142.38 32.12 142.38 32.73V36.52H142.37Z" fill="black"/>
<path d="M165.13 27.6C164.45 26.92 163.65 26.38 162.74 25.99C161.83 25.6 160.85 25.4 159.82 25.4H159.05C157.9 25.4 156.84 25.63 155.86 26.1C154.88 26.57 154.04 27.21 153.34 28.04V15.69H150.28V44.42C150.28 45.45 150.47 46.42 150.87 47.34C151.26 48.25 151.8 49.05 152.48 49.73C153.16 50.41 153.96 50.95 154.87 51.34C155.78 51.73 156.75 51.93 157.79 51.93H159.83C160.86 51.93 161.83 51.73 162.75 51.34C163.66 50.95 164.46 50.41 165.14 49.73C165.82 49.05 166.36 48.25 166.75 47.34C167.14 46.43 167.34 45.46 167.34 44.42V32.91C167.34 31.88 167.14 30.91 166.75 29.99C166.36 29.08 165.82 28.28 165.14 27.6H165.13ZM164.26 44.59C164.26 45.21 164.14 45.78 163.91 46.32C163.68 46.86 163.36 47.33 162.96 47.73C162.56 48.13 162.09 48.44 161.55 48.68C161.01 48.91 160.43 49.03 159.82 49.03H157.78C157.17 49.03 156.59 48.91 156.05 48.68C155.51 48.45 155.04 48.13 154.64 47.73C154.24 47.33 153.93 46.86 153.69 46.32C153.46 45.78 153.34 45.2 153.34 44.59V32.73C153.34 32.12 153.46 31.54 153.69 31C153.92 30.46 154.24 29.99 154.64 29.59C155.04 29.19 155.51 28.88 156.05 28.64C156.59 28.41 157.17 28.29 157.78 28.29H159.82C160.43 28.29 161.01 28.41 161.55 28.64C162.09 28.87 162.56 29.19 162.96 29.59C163.36 29.99 163.67 30.46 163.91 31C164.14 31.54 164.26 32.12 164.26 32.73V44.59Z" fill="black"/>
<path d="M224.78 16.21C223.97 16.56 223.25 17.04 222.64 17.66C222.03 18.27 221.54 18.99 221.19 19.82C220.84 20.64 220.67 21.52 220.67 22.45V25.91H216.06V28.83H220.67V51.43H223.73V28.82H229.69V25.9H223.73V22.29C223.73 21.78 223.83 21.29 224.02 20.84C224.21 20.39 224.47 20 224.8 19.67C225.13 19.34 225.52 19.08 225.96 18.89C226.4 18.7 226.88 18.6 227.39 18.6H230.21V15.68H227.39C226.46 15.68 225.59 15.85 224.77 16.2L224.78 16.21Z" fill="black"/>
<path d="M270.5 17.76C269.7 16.96 268.77 16.34 267.71 15.88C266.65 15.42 265.51 15.19 264.3 15.19H261.76C260.55 15.19 259.41 15.42 258.33 15.88C257.26 16.34 256.32 16.96 255.53 17.76C254.74 18.56 254.11 19.49 253.65 20.55C253.19 21.61 252.96 22.75 252.96 23.96V43.15C252.96 44.36 253.19 45.5 253.65 46.56C254.11 47.62 254.73 48.55 255.53 49.35C256.33 50.15 257.26 50.77 258.33 51.23C259.4 51.69 260.54 51.92 261.76 51.92H264.3C265.51 51.92 266.65 51.69 267.71 51.23C268.77 50.77 269.7 50.15 270.5 49.35C271.3 48.55 271.92 47.62 272.38 46.56C272.84 45.5 273.07 44.36 273.07 43.15V23.96C273.07 22.75 272.84 21.61 272.38 20.55C271.92 19.49 271.3 18.56 270.5 17.76ZM269.85 43.15C269.85 43.95 269.7 44.69 269.4 45.38C269.1 46.07 268.69 46.68 268.18 47.2C267.66 47.72 267.06 48.13 266.37 48.43C265.68 48.73 264.94 48.88 264.14 48.88H261.9C261.1 48.88 260.36 48.73 259.67 48.43C258.98 48.13 258.37 47.72 257.85 47.2C257.33 46.68 256.92 46.07 256.62 45.38C256.32 44.69 256.17 43.95 256.17 43.15V23.96C256.17 23.16 256.32 22.42 256.62 21.73C256.92 21.04 257.33 20.44 257.85 19.92C258.37 19.41 258.98 19 259.67 18.7C260.36 18.4 261.1 18.25 261.9 18.25H264.14C264.94 18.25 265.68 18.4 266.37 18.7C267.06 19 267.66 19.41 268.18 19.92C268.69 20.44 269.1 21.04 269.4 21.73C269.7 22.42 269.85 23.16 269.85 23.96V43.15Z" fill="black"/>
<path d="M283.77 26.24C282.71 26.8 281.84 27.55 281.14 28.5L279.47 25.91H278.45V51.43H281.51V33.27C281.51 32.66 281.63 32.08 281.86 31.54C282.09 31 282.41 30.53 282.81 30.13C283.21 29.73 283.68 29.42 284.22 29.18C284.76 28.95 285.34 28.83 285.95 28.83H289.01V25.42H287.22C285.97 25.42 284.82 25.7 283.77 26.25V26.24Z" fill="black"/>
<path d="M295.9 25.9H292.84V51.42H295.9V25.9Z" fill="black"/>
<path d="M296.15 15.69H292.59V19.78H296.15V15.69Z" fill="black"/>
<path d="M316.63 28.5C315.93 27.55 315.06 26.8 314 26.24C312.94 25.68 311.79 25.41 310.55 25.41H309.28C308.25 25.41 307.28 25.61 306.36 26C305.45 26.39 304.65 26.93 303.97 27.61C303.29 28.29 302.75 29.09 302.36 30C301.97 30.91 301.77 31.89 301.77 32.92V34.84C301.77 36 302 37.07 302.47 38.05C302.93 39.03 303.57 39.87 304.36 40.57C303.7 41.05 303.17 41.68 302.79 42.45C302.41 43.22 302.22 44.06 302.22 44.95C302.22 45.95 302.46 46.86 302.93 47.68C303.4 48.5 304.04 49.15 304.84 49.64C304.21 50.25 303.71 50.98 303.35 51.81C302.98 52.64 302.8 53.55 302.8 54.55V54.65C302.8 55.68 302.99 56.63 303.39 57.49C303.78 58.35 304.32 59.09 305 59.71C305.68 60.32 306.48 60.8 307.39 61.14C308.3 61.48 309.27 61.65 310.31 61.65H311.58C312.61 61.65 313.58 61.48 314.5 61.14C315.41 60.8 316.21 60.32 316.89 59.71C317.57 59.09 318.11 58.36 318.5 57.49C318.89 56.63 319.09 55.68 319.09 54.65V54.55C319.09 53.52 318.89 52.57 318.5 51.71C318.11 50.85 317.57 50.11 316.89 49.49C316.21 48.88 315.41 48.4 314.5 48.06C313.59 47.72 312.61 47.55 311.58 47.55H307.39C307.04 47.55 306.71 47.48 306.39 47.35C306.07 47.22 305.8 47.03 305.56 46.79C305.32 46.55 305.13 46.27 305 45.96C304.87 45.65 304.8 45.31 304.8 44.96C304.8 44.61 304.87 44.27 305 43.95C305.13 43.63 305.32 43.35 305.56 43.12C305.8 42.89 306.08 42.7 306.39 42.56C306.7 42.42 307.04 42.35 307.39 42.35H311.83C312.86 42.35 313.83 42.16 314.75 41.76C315.66 41.37 316.46 40.83 317.14 40.15C317.82 39.47 318.36 38.67 318.75 37.76C319.14 36.85 319.34 35.88 319.34 34.84V25.92H318.32L316.65 28.51L316.63 28.5ZM305.72 54.39C305.72 53.77 305.84 53.22 306.07 52.73C306.3 52.24 306.62 51.83 307.02 51.5C307.42 51.17 307.89 50.91 308.43 50.73C308.97 50.55 309.55 50.46 310.16 50.46H311.73C312.34 50.46 312.92 50.55 313.46 50.73C314 50.91 314.47 51.17 314.87 51.5C315.27 51.83 315.58 52.24 315.82 52.73C316.05 53.22 316.17 53.77 316.17 54.39V54.79C316.17 55.4 316.05 55.95 315.82 56.43C315.59 56.91 315.27 57.32 314.87 57.66C314.47 58 314 58.26 313.46 58.44C312.92 58.62 312.34 58.71 311.73 58.71H310.16C309.55 58.71 308.97 58.62 308.43 58.44C307.89 58.26 307.42 57.99 307.02 57.66C306.62 57.32 306.31 56.91 306.07 56.43C305.84 55.95 305.72 55.4 305.72 54.79V54.39ZM316.29 35C316.29 35.61 316.17 36.19 315.94 36.73C315.71 37.27 315.39 37.74 314.98 38.14C314.57 38.54 314.1 38.85 313.56 39.09C313.02 39.32 312.44 39.44 311.83 39.44H309.29C308.68 39.44 308.1 39.32 307.56 39.09C307.02 38.86 306.55 38.54 306.15 38.14C305.75 37.74 305.44 37.27 305.2 36.73C304.97 36.19 304.85 35.61 304.85 35V32.73C304.85 32.12 304.97 31.54 305.2 31C305.43 30.46 305.75 29.99 306.15 29.59C306.55 29.19 307.02 28.88 307.56 28.64C308.1 28.41 308.68 28.29 309.29 28.29H311.83C312.44 28.29 313.02 28.41 313.56 28.64C314.1 28.87 314.57 29.19 314.98 29.59C315.39 29.99 315.71 30.46 315.94 31C316.17 31.54 316.29 32.12 316.29 32.73V35Z" fill="black"/>
<path d="M327.76 25.9H324.7V51.42H327.76V25.9Z" fill="black"/>
<path d="M328.01 15.69H324.45V19.78H328.01V15.69Z" fill="black"/>
<path d="M348.49 27.6C347.81 26.92 347.01 26.38 346.1 25.99C345.19 25.6 344.21 25.4 343.18 25.4H342.41C341.16 25.4 340.01 25.68 338.96 26.23C337.9 26.79 337.03 27.54 336.33 28.49L334.66 25.9H333.64V51.42H336.7V32.73C336.7 32.12 336.82 31.54 337.05 31C337.28 30.46 337.6 29.99 338 29.59C338.4 29.19 338.87 28.88 339.41 28.64C339.95 28.41 340.53 28.29 341.14 28.29H343.18C343.79 28.29 344.37 28.41 344.91 28.64C345.45 28.87 345.92 29.19 346.32 29.59C346.72 29.99 347.03 30.46 347.27 31C347.5 31.54 347.62 32.12 347.62 32.73V51.42H350.68V32.91C350.68 31.88 350.48 30.91 350.09 29.99C349.7 29.08 349.16 28.28 348.48 27.6H348.49Z" fill="black"/>
<path d="M372.48 41.89C372.08 41.07 371.55 40.38 370.9 39.83C370.24 39.28 369.5 38.83 368.66 38.48C367.82 38.13 366.97 37.82 366.09 37.55C365.22 37.28 364.36 37.01 363.52 36.75C362.68 36.49 361.93 36.17 361.28 35.79C360.62 35.41 360.1 34.94 359.7 34.38C359.3 33.82 359.1 33.11 359.1 32.22C359.1 31.61 359.22 31.06 359.45 30.58C359.68 30.1 360 29.69 360.4 29.35C360.8 29.01 361.27 28.75 361.81 28.57C362.35 28.39 362.93 28.3 363.54 28.3H365.33C365.94 28.3 366.52 28.42 367.06 28.65C367.6 28.88 368.07 29.2 368.47 29.6C368.87 30 369.18 30.47 369.42 31.01C369.65 31.55 369.77 32.13 369.77 32.74V33.51L372.83 33.01V32.91C372.83 31.88 372.63 30.91 372.24 29.99C371.85 29.08 371.31 28.28 370.63 27.6C369.95 26.92 369.15 26.38 368.24 25.99C367.33 25.6 366.35 25.4 365.32 25.4H363.53C362.5 25.4 361.53 25.57 360.63 25.91C359.72 26.25 358.93 26.73 358.25 27.34C357.57 27.96 357.03 28.69 356.63 29.55C356.23 30.41 356.03 31.35 356.03 32.38C356.03 33.59 356.23 34.61 356.63 35.42C357.03 36.23 357.56 36.91 358.21 37.45C358.87 37.99 359.61 38.43 360.45 38.76C361.29 39.09 362.15 39.39 363.03 39.64C363.91 39.9 364.77 40.16 365.61 40.41C366.45 40.67 367.2 40.99 367.85 41.38C368.51 41.77 369.03 42.26 369.43 42.84C369.83 43.42 370.03 44.17 370.03 45.08C370.03 45.7 369.9 46.24 369.64 46.72C369.38 47.2 369.03 47.61 368.59 47.95C368.15 48.29 367.65 48.55 367.08 48.73C366.51 48.91 365.92 49 365.31 49H363.27C362.66 49 362.06 48.88 361.5 48.65C360.93 48.42 360.44 48.1 360.01 47.7C359.58 47.3 359.23 46.83 358.98 46.29C358.72 45.75 358.59 45.17 358.59 44.56V42.87L355.53 43.37V44.39C355.53 45.42 355.74 46.39 356.17 47.31C356.59 48.22 357.16 49.02 357.86 49.7C358.57 50.38 359.39 50.92 360.33 51.31C361.27 51.7 362.25 51.9 363.28 51.9H365.32C366.35 51.9 367.33 51.73 368.27 51.39C369.21 51.05 370.03 50.57 370.75 49.96C371.46 49.35 372.03 48.61 372.44 47.75C372.85 46.89 373.06 45.95 373.06 44.92C373.06 43.71 372.86 42.69 372.46 41.87L372.48 41.89Z" fill="black"/>
<path d="M211.14 47.29C210.75 48.21 210.21 49 209.53 49.69C208.85 50.37 208.05 50.91 207.13 51.3C206.22 51.69 205.24 51.89 204.21 51.89H202.16C201.13 51.89 200.16 51.69 199.24 51.3C198.32 50.91 197.53 50.37 196.84 49.69C196.15 49.01 195.62 48.21 195.23 47.29C194.84 46.37 194.64 45.4 194.64 44.37V32.84C194.64 31.81 194.84 30.84 195.23 29.92C195.62 29.01 196.16 28.21 196.84 27.52C197.52 26.83 198.32 26.3 199.24 25.91C200.15 25.52 201.13 25.32 202.16 25.32H204.21C205.24 25.32 206.21 25.52 207.13 25.91C208.05 26.3 208.84 26.84 209.53 27.52C210.21 28.2 210.75 29 211.14 29.92C211.53 30.84 211.73 31.81 211.73 32.84V44.37C211.73 45.4 211.53 46.37 211.14 47.29ZM208.66 32.67C208.66 32.05 208.54 31.48 208.31 30.94C208.08 30.4 207.76 29.93 207.36 29.53C206.96 29.13 206.49 28.82 205.95 28.58C205.41 28.35 204.83 28.23 204.22 28.23H202.17C201.55 28.23 200.98 28.35 200.44 28.58C199.9 28.81 199.43 29.13 199.03 29.53C198.63 29.93 198.31 30.4 198.08 30.94C197.85 31.48 197.73 32.06 197.73 32.67V44.55C197.73 45.17 197.85 45.74 198.08 46.28C198.31 46.82 198.63 47.29 199.03 47.69C199.43 48.09 199.9 48.4 200.44 48.64C200.98 48.87 201.56 48.99 202.17 48.99H204.22C204.84 48.99 205.41 48.87 205.95 48.64C206.49 48.41 206.96 48.09 207.36 47.69C207.76 47.29 208.08 46.82 208.31 46.28C208.54 45.74 208.66 45.16 208.66 44.55V32.67Z" fill="black"/>
</g>
<defs>
<clipPath id="clip0_4_2">
<rect width="373.08" height="66.83" fill="white"/>
</clipPath>
</defs>
</svg>
