<?xml version="1.0" encoding="utf-8"?>
<!-- Generator: Adobe Illustrator 26.5.0, SVG Export Plug-In . SVG Version: 6.00 Build 0)  -->
<svg version="1.1" id="Layer_1" xmlns="http://www.w3.org/2000/svg" xmlns:xlink="http://www.w3.org/1999/xlink" x="0px" y="0px"
	 viewBox="0 0 468 468" style="enable-background:new 0 0 468 468;" xml:space="preserve">
<style type="text/css">
	.st0{fill:#F1F6FF;}
	.st1{fill:none;stroke:#F1F6FF;stroke-width:8;stroke-miterlimit:10;}
</style>
<path class="st0" d="M207.1,152.2c0-7.6-6.1-13.7-13.7-13.7c-7.6,0-13.7,6.1-13.7,13.7v27.4h-27.4c-7.6,0-13.7,6.1-13.7,13.7
	c0,7.6,6.1,13.7,13.7,13.7h41.1c7.6,0,13.7-6.1,13.7-13.7V152.2z M152.2,261.9c-7.6,0-13.7,6.1-13.7,13.7s6.1,13.7,13.7,13.7h27.4
	v27.4c0,7.6,6.1,13.7,13.7,13.7c7.6,0,13.7-6.1,13.7-13.7v-41.1c0-7.6-6.1-13.7-13.7-13.7H152.2z M289.4,152.2
	c0-7.6-6.1-13.7-13.7-13.7s-13.7,6.1-13.7,13.7v41.1c0,7.6,6.1,13.7,13.7,13.7h41.1c7.6,0,13.7-6.1,13.7-13.7
	c0-7.6-6.1-13.7-13.7-13.7h-27.4V152.2z M275.6,261.9c-7.6,0-13.7,6.1-13.7,13.7v41.1c0,7.6,6.1,13.7,13.7,13.7s13.7-6.1,13.7-13.7
	v-27.4h27.4c7.6,0,13.7-6.1,13.7-13.7s-6.1-13.7-13.7-13.7H275.6z"/>
<circle class="st1" cx="234" cy="234" r="230"/>
</svg>
