<?xml version="1.0" encoding="utf-8"?>
<!-- Generator: Adobe Illustrator 26.5.0, SVG Export Plug-In . SVG Version: 6.00 Build 0)  -->
<svg version="1.1" id="Layer_1" xmlns="http://www.w3.org/2000/svg" xmlns:xlink="http://www.w3.org/1999/xlink" x="0px" y="0px"
	 viewBox="0 0 468 468" style="enable-background:new 0 0 468 468;" xml:space="preserve">
<style type="text/css">
	.st0{fill:#F1F6FF;}
	.st1{fill:none;stroke:#F1F6FF;stroke-width:8;stroke-miterlimit:10;}
</style>
<path class="st0" d="M294,216c0,17.2-5.6,33.1-15,46l47.5,47.5c4.7,4.7,4.7,12.3,0,17c-4.7,4.7-12.3,4.7-17,0L262,279
	c-12.9,9.5-28.8,15-46,15c-43.1,0-78-34.9-78-78s34.9-78,78-78S294,172.9,294,216z M189,207c-5,0-9,4-9,9s4,9,9,9h54c5,0,9-4,9-9
	s-4-9-9-9H189z"/>
<circle class="st1" cx="234" cy="234" r="230"/>
</svg>
