<?xml version="1.0" encoding="utf-8"?>
<!-- Generator: Adobe Illustrator 26.5.0, SVG Export Plug-In . SVG Version: 6.00 Build 0)  -->
<svg version="1.1" id="Layer_1" xmlns="http://www.w3.org/2000/svg" xmlns:xlink="http://www.w3.org/1999/xlink" x="0px" y="0px"
	 viewBox="0 0 116.2 109.5" style="enable-background:new 0 0 116.2 109.5;" xml:space="preserve">
<style type="text/css">
	.st0{fill:#C9E73A;}
	.st1{fill:#F4F9FF;}
</style>
<g>
	<path class="st0" d="M44.9,66c3.8-4.5,6.1-10.2,6.1-16.6c0-14.1-11.4-25.5-25.5-25.5c-1.5,0-2.9,0.1-4.3,0.4L44.9,66z"/>
	<path class="st0" d="M18.6,24.9C7.9,27.9,0,37.7,0,49.4c0,14.1,11.4,25.5,25.5,25.5c5.1,0,9.9-1.5,13.9-4.1L18.6,24.9z"/>
</g>
<g>
	<path class="st1" d="M21.2,24.3L7.4,0.1l11.2,24.7C19.4,24.6,20.3,24.4,21.2,24.3z"/>
	<path class="st1" d="M107.1,52.1L91.7,90.7L77.9,71.2l9.5-18.9h-10L57.7,88.5L44.9,66c-1.6,1.8-3.4,3.5-5.5,4.8L57,109.6l16.3-30.2
		l20.9,30.1l22-57.4H107.1z"/>
</g>
</svg>
