<?xml version="1.0" encoding="UTF-8"?>
<svg id="Layer_2" data-name="Layer 2" xmlns="http://www.w3.org/2000/svg" viewBox="0 0 373.08 66.83">
  <defs>
    <style>
      .cls-1 {
        fill: #fff;
      }

      .cls-2 {
        fill: #c9e73a;
      }
    </style>
  </defs>
  <g id="Layer_1-2" data-name="Layer 1">
    <g>
      <path class="cls-2" d="M33.41,0c-1.95,0-3.86,.18-5.72,.5l31.09,54.65c5.01-5.84,8.05-13.43,8.05-21.74C66.83,14.96,51.87,0,33.41,0Z"/>
      <path class="cls-2" d="M0,33.41c0,18.45,14.96,33.41,33.41,33.41,6.74,0,13-2,18.25-5.43L24.38,1.25C10.32,5.19,0,18.09,0,33.41Z"/>
    </g>
    <g>
      <polygon class="cls-1" points="116.11 42.85 115.98 44.17 115.88 42.85 109 15.69 107.21 15.69 100.33 42.85 100.23 44.17 100.13 42.85 93.13 15.69 89.92 15.69 99.41 51.42 101.08 51.42 107.98 24.53 108.13 23.14 108.23 24.53 115.18 51.42 116.85 51.42 126.3 15.69 123.08 15.69 116.11 42.85"/>
      <path class="cls-1" d="M143.24,27.6c-.68-.68-1.48-1.22-2.39-1.61-.91-.39-1.89-.59-2.92-.59h-2.04c-1.03,0-2,.2-2.92,.59-.91,.39-1.71,.93-2.39,1.61-.68,.68-1.22,1.48-1.61,2.39-.39,.91-.59,1.89-.59,2.92v11.51c0,1.03,.19,2,.59,2.92,.39,.91,.93,1.71,1.61,2.39,.68,.68,1.48,1.22,2.39,1.61,.91,.39,1.88,.59,2.92,.59h2.04c1.03,0,2-.2,2.92-.59,.91-.39,1.71-.93,2.39-1.61,.68-.68,1.22-1.48,1.61-2.39,.39-.91,.59-1.88,.59-2.92v-1.02l-3.06-.5v1.69c0,.62-.12,1.19-.35,1.73-.23,.54-.55,1.01-.95,1.41s-.87,.71-1.41,.95c-.54,.23-1.12,.35-1.73,.35h-2.04c-.61,0-1.19-.12-1.73-.35-.54-.23-1.01-.55-1.41-.95s-.71-.87-.95-1.41c-.23-.54-.35-1.12-.35-1.73v-5.68h13.98v-6.01c0-1.03-.2-2-.59-2.92-.39-.91-.93-1.71-1.61-2.39Zm-.87,8.92h-10.91v-3.79c0-.61,.12-1.19,.35-1.73,.23-.54,.55-1.01,.95-1.41s.87-.71,1.41-.95c.54-.23,1.12-.35,1.73-.35h2.04c.61,0,1.19,.12,1.73,.35,.54,.23,1.01,.55,1.41,.95s.71,.87,.95,1.41c.23,.54,.35,1.12,.35,1.73v3.79Z"/>
      <path class="cls-1" d="M165.13,27.6c-.68-.68-1.48-1.22-2.39-1.61-.91-.39-1.89-.59-2.92-.59h-.77c-1.15,0-2.21,.23-3.19,.7-.98,.47-1.82,1.11-2.52,1.94V15.69h-3.06v28.73c0,1.03,.19,2,.59,2.92,.39,.91,.93,1.71,1.61,2.39,.68,.68,1.48,1.22,2.39,1.61,.91,.39,1.88,.59,2.92,.59h2.04c1.03,0,2-.2,2.92-.59,.91-.39,1.71-.93,2.39-1.61,.68-.68,1.22-1.48,1.61-2.39,.39-.91,.59-1.88,.59-2.92v-11.51c0-1.03-.2-2-.59-2.92-.39-.91-.93-1.71-1.61-2.39Zm-.87,16.99c0,.62-.12,1.19-.35,1.73-.23,.54-.55,1.01-.95,1.41s-.87,.71-1.41,.95c-.54,.23-1.12,.35-1.73,.35h-2.04c-.61,0-1.19-.12-1.73-.35-.54-.23-1.01-.55-1.41-.95s-.71-.87-.95-1.41c-.23-.54-.35-1.12-.35-1.73v-11.86c0-.61,.12-1.19,.35-1.73,.23-.54,.55-1.01,.95-1.41s.87-.71,1.41-.95c.54-.23,1.12-.35,1.73-.35h2.04c.61,0,1.19,.12,1.73,.35,.54,.23,1.01,.55,1.41,.95s.71,.87,.95,1.41c.23,.54,.35,1.12,.35,1.73v11.86Z"/>
      <path class="cls-1" d="M210.68,17.76c-.8-.8-1.73-1.42-2.79-1.88-1.06-.46-2.2-.69-3.41-.69h-2.54c-1.21,0-2.35,.23-3.43,.69-1.07,.46-2.01,1.08-2.8,1.88s-1.42,1.73-1.88,2.79c-.46,1.06-.69,2.2-.69,3.41v19.19c0,1.21,.23,2.35,.69,3.41,.46,1.06,1.08,1.99,1.88,2.79s1.73,1.42,2.8,1.88c1.07,.46,2.21,.69,3.43,.69h2.54c1.21,0,2.35-.23,3.41-.69,1.06-.46,1.99-1.08,2.79-1.88s1.42-1.73,1.88-2.79c.46-1.06,.69-2.2,.69-3.41V23.96c0-1.21-.23-2.35-.69-3.41-.46-1.06-1.08-1.99-1.88-2.79Zm-.65,25.39c0,.8-.15,1.54-.45,2.23-.3,.69-.71,1.3-1.22,1.82-.52,.52-1.12,.93-1.81,1.23-.69,.3-1.43,.45-2.23,.45h-2.24c-.8,0-1.54-.15-2.23-.45-.69-.3-1.3-.71-1.82-1.23-.52-.52-.93-1.13-1.23-1.82-.3-.69-.45-1.43-.45-2.23V23.96c0-.8,.15-1.54,.45-2.23,.3-.69,.71-1.29,1.23-1.81,.52-.51,1.13-.92,1.82-1.22,.69-.3,1.43-.45,2.23-.45h2.24c.8,0,1.54,.15,2.23,.45,.69,.3,1.29,.71,1.81,1.22,.51,.52,.92,1.12,1.22,1.81,.3,.69,.45,1.43,.45,2.23v19.19Z"/>
      <path class="cls-1" d="M224.78,16.21c-.81,.35-1.53,.83-2.14,1.45-.61,.61-1.1,1.33-1.45,2.16-.35,.82-.52,1.7-.52,2.63v3.46h-4.61v2.92h4.61v22.6h3.06V28.82h5.96v-2.92h-5.96v-3.61c0-.51,.1-1,.29-1.45,.19-.45,.45-.84,.78-1.17,.33-.33,.72-.59,1.16-.78,.44-.19,.92-.29,1.43-.29h2.82v-2.92h-2.82c-.93,0-1.8,.17-2.62,.52Z"/>
      <path class="cls-1" d="M270.5,17.76c-.8-.8-1.73-1.42-2.79-1.88-1.06-.46-2.2-.69-3.41-.69h-2.54c-1.21,0-2.35,.23-3.43,.69-1.07,.46-2.01,1.08-2.8,1.88s-1.42,1.73-1.88,2.79c-.46,1.06-.69,2.2-.69,3.41v19.19c0,1.21,.23,2.35,.69,3.41,.46,1.06,1.08,1.99,1.88,2.79s1.73,1.42,2.8,1.88,2.21,.69,3.43,.69h2.54c1.21,0,2.35-.23,3.41-.69,1.06-.46,1.99-1.08,2.79-1.88s1.42-1.73,1.88-2.79c.46-1.06,.69-2.2,.69-3.41V23.96c0-1.21-.23-2.35-.69-3.41-.46-1.06-1.08-1.99-1.88-2.79Zm-.65,25.39c0,.8-.15,1.54-.45,2.23-.3,.69-.71,1.3-1.22,1.82-.52,.52-1.12,.93-1.81,1.23-.69,.3-1.43,.45-2.23,.45h-2.24c-.8,0-1.54-.15-2.23-.45-.69-.3-1.3-.71-1.82-1.23-.52-.52-.93-1.13-1.23-1.82-.3-.69-.45-1.43-.45-2.23V23.96c0-.8,.15-1.54,.45-2.23,.3-.69,.71-1.29,1.23-1.81,.52-.51,1.13-.92,1.82-1.22,.69-.3,1.43-.45,2.23-.45h2.24c.8,0,1.54,.15,2.23,.45,.69,.3,1.29,.71,1.81,1.22,.51,.52,.92,1.12,1.22,1.81,.3,.69,.45,1.43,.45,2.23v19.19Z"/>
      <path class="cls-1" d="M283.77,26.24c-1.06,.56-1.93,1.31-2.63,2.26l-1.67-2.59h-1.02v25.52h3.06v-18.16c0-.61,.12-1.19,.35-1.73,.23-.54,.55-1.01,.95-1.41s.87-.71,1.41-.95c.54-.23,1.12-.35,1.73-.35h3.06v-3.41h-1.79c-1.25,0-2.4,.28-3.45,.83Z"/>
      <rect class="cls-1" x="292.84" y="25.9" width="3.06" height="25.52"/>
      <rect class="cls-1" x="292.59" y="15.69" width="3.56" height="4.09"/>
      <path class="cls-1" d="M316.63,28.5c-.7-.95-1.57-1.7-2.63-2.26-1.06-.56-2.21-.83-3.45-.83h-1.27c-1.03,0-2,.2-2.92,.59-.91,.39-1.71,.93-2.39,1.61-.68,.68-1.22,1.48-1.61,2.39-.39,.91-.59,1.89-.59,2.92v1.92c0,1.16,.23,2.23,.7,3.21,.46,.98,1.1,1.82,1.89,2.52-.66,.48-1.19,1.11-1.57,1.88-.38,.77-.57,1.61-.57,2.5,0,1,.24,1.91,.71,2.73,.47,.82,1.11,1.47,1.91,1.96-.63,.61-1.13,1.34-1.49,2.17-.37,.83-.55,1.74-.55,2.74v.1c0,1.03,.19,1.98,.59,2.84,.39,.86,.93,1.6,1.61,2.22,.68,.61,1.48,1.09,2.39,1.43,.91,.34,1.88,.51,2.92,.51h1.27c1.03,0,2-.17,2.92-.51,.91-.34,1.71-.82,2.39-1.43,.68-.62,1.22-1.35,1.61-2.22,.39-.86,.59-1.81,.59-2.84v-.1c0-1.03-.2-1.98-.59-2.84-.39-.86-.93-1.6-1.61-2.22-.68-.61-1.48-1.09-2.39-1.43-.91-.34-1.89-.51-2.92-.51h-4.19c-.35,0-.68-.07-1-.2-.32-.13-.59-.32-.83-.56-.24-.24-.43-.52-.56-.83-.13-.31-.2-.65-.2-1s.07-.69,.2-1.01c.13-.32,.32-.6,.56-.83,.24-.23,.52-.42,.83-.56,.31-.14,.65-.21,1-.21h4.44c1.03,0,2-.19,2.92-.59,.91-.39,1.71-.93,2.39-1.61,.68-.68,1.22-1.48,1.61-2.39,.39-.91,.59-1.88,.59-2.92v-8.92h-1.02l-1.67,2.59Zm-10.91,25.89c0-.62,.12-1.17,.35-1.66,.23-.49,.55-.9,.95-1.23,.4-.33,.87-.59,1.41-.77,.54-.18,1.12-.27,1.73-.27h1.57c.61,0,1.19,.09,1.73,.27,.54,.18,1.01,.44,1.41,.77,.4,.33,.71,.74,.95,1.23,.23,.49,.35,1.04,.35,1.66v.4c0,.61-.12,1.16-.35,1.64-.23,.48-.55,.89-.95,1.23-.4,.34-.87,.6-1.41,.78-.54,.18-1.12,.27-1.73,.27h-1.57c-.61,0-1.19-.09-1.73-.27-.54-.18-1.01-.45-1.41-.78-.4-.34-.71-.75-.95-1.23-.23-.48-.35-1.03-.35-1.64v-.4Zm10.57-19.39c0,.61-.12,1.19-.35,1.73-.23,.54-.55,1.01-.96,1.41-.41,.4-.88,.71-1.42,.95-.54,.23-1.12,.35-1.73,.35h-2.54c-.61,0-1.19-.12-1.73-.35-.54-.23-1.01-.55-1.41-.95s-.71-.87-.95-1.41c-.23-.54-.35-1.12-.35-1.73v-2.27c0-.61,.12-1.19,.35-1.73,.23-.54,.55-1.01,.95-1.41s.87-.71,1.41-.95c.54-.23,1.12-.35,1.73-.35h2.54c.61,0,1.19,.12,1.73,.35,.54,.23,1.01,.55,1.42,.95,.41,.4,.73,.87,.96,1.41,.23,.54,.35,1.12,.35,1.73v2.27Z"/>
      <rect class="cls-1" x="324.7" y="25.9" width="3.06" height="25.52"/>
      <rect class="cls-1" x="324.45" y="15.69" width="3.56" height="4.09"/>
      <path class="cls-1" d="M348.49,27.6c-.68-.68-1.48-1.22-2.39-1.61-.91-.39-1.89-.59-2.92-.59h-.77c-1.25,0-2.4,.28-3.45,.83-1.06,.56-1.93,1.31-2.63,2.26l-1.67-2.59h-1.02v25.52h3.06v-18.69c0-.61,.12-1.19,.35-1.73,.23-.54,.55-1.01,.95-1.41s.87-.71,1.41-.95c.54-.23,1.12-.35,1.73-.35h2.04c.61,0,1.19,.12,1.73,.35,.54,.23,1.01,.55,1.41,.95s.71,.87,.95,1.41c.23,.54,.35,1.12,.35,1.73v18.69h3.06v-18.51c0-1.03-.2-2-.59-2.92-.39-.91-.93-1.71-1.61-2.39Z"/>
      <path class="cls-1" d="M372.48,41.89c-.4-.82-.93-1.51-1.58-2.06-.66-.55-1.4-1-2.24-1.35-.84-.35-1.69-.66-2.57-.93-.87-.27-1.73-.54-2.57-.8-.84-.26-1.59-.58-2.24-.96-.66-.38-1.18-.85-1.58-1.41-.4-.56-.6-1.27-.6-2.16,0-.61,.12-1.16,.35-1.64,.23-.48,.55-.89,.95-1.23,.4-.34,.87-.6,1.41-.78,.54-.18,1.12-.27,1.73-.27h1.79c.61,0,1.19,.12,1.73,.35,.54,.23,1.01,.55,1.41,.95s.71,.87,.95,1.41c.23,.54,.35,1.12,.35,1.73v.77l3.06-.5v-.1c0-1.03-.2-2-.59-2.92-.39-.91-.93-1.71-1.61-2.39-.68-.68-1.48-1.22-2.39-1.61-.91-.39-1.89-.59-2.92-.59h-1.79c-1.03,0-2,.17-2.9,.51-.91,.34-1.7,.82-2.38,1.43-.68,.62-1.22,1.35-1.62,2.21-.4,.86-.6,1.8-.6,2.83,0,1.21,.2,2.23,.6,3.04,.4,.81,.93,1.49,1.58,2.03,.66,.54,1.4,.98,2.24,1.31,.84,.33,1.7,.63,2.58,.88,.88,.26,1.74,.52,2.58,.77,.84,.26,1.59,.58,2.24,.97,.66,.39,1.18,.88,1.58,1.46,.4,.58,.6,1.33,.6,2.24,0,.62-.13,1.16-.39,1.64-.26,.48-.61,.89-1.05,1.23-.44,.34-.94,.6-1.51,.78-.57,.18-1.16,.27-1.77,.27h-2.04c-.61,0-1.21-.12-1.77-.35-.57-.23-1.06-.55-1.49-.95-.43-.4-.78-.87-1.03-1.41-.26-.54-.39-1.12-.39-1.73v-1.69l-3.06,.5v1.02c0,1.03,.21,2,.64,2.92,.42,.91,.99,1.71,1.69,2.39,.71,.68,1.53,1.22,2.47,1.61,.94,.39,1.92,.59,2.95,.59h2.04c1.03,0,2.01-.17,2.95-.51,.94-.34,1.76-.82,2.48-1.43,.71-.61,1.28-1.35,1.69-2.21,.41-.86,.62-1.8,.62-2.83,0-1.21-.2-2.23-.6-3.05Z"/>
    </g>
    <circle class="cls-1" cx="180.38" cy="38.41" r="3.32"/>
    <circle class="cls-1" cx="239.91" cy="38.41" r="3.32"/>
  </g>
</svg>