<?xml version="1.0" encoding="UTF-8"?>
<svg id="Layer_1" data-name="Layer 1" xmlns="http://www.w3.org/2000/svg" viewBox="0 0 120 120">
  <defs>
    <style>
      .cls-1 {
        fill: #f4f9ff;
      }

      .cls-2 {
        fill: #c9e73a;
      }

      .cls-3 {
        fill: none;
      }

      .cls-4 {
        fill: #aea3ff;
      }
    </style>
  </defs>
  <path class="cls-3" d="M47.31,70.63L24.67,30.82c-.82,.14-1.63,.32-2.42,.55l19.88,43.82c1.94-1.27,3.68-2.8,5.19-4.55Z"/>
  <path class="cls-2" d="M53.18,54.8c0-13.44-10.9-24.34-24.34-24.34-1.42,0-2.81,.13-4.17,.36l22.65,39.82c3.65-4.26,5.86-9.79,5.86-15.84Z"/>
  <path class="cls-2" d="M4.49,54.8c0,13.44,10.9,24.34,24.34,24.34,4.91,0,9.47-1.46,13.29-3.95L22.25,31.36c-10.24,2.87-17.76,12.27-17.76,23.43Z"/>
  <path class="cls-1" d="M106.78,57.39l-14.73,36.85-13.17-18.65,9.12-18.04h-9.61l-18.84,34.63-12.25-21.53c-1.5,1.75-3.25,3.29-5.19,4.55l16.82,37.1,15.59-28.83,14.11,20.35c4.39-5.44,9.34-10.41,14.76-14.83l12.11-31.58h-8.73Z"/>
  <path class="cls-1" d="M11.52,7.72l10.73,23.65c.79-.22,1.6-.4,2.42-.55L11.52,7.72Z"/>
  <path class="cls-4" d="M88.64,103.8l5.84,8.43,8.92-23.26c-5.42,4.42-10.37,9.39-14.76,14.83Z"/>
</svg>