<?xml version="1.0" encoding="UTF-8"?>
<svg id="Layer_1" data-name="Layer 1" xmlns="http://www.w3.org/2000/svg" viewBox="0 0 120 120">
  <defs>
    <style>
      .cls-1 {
        fill: #f4f9ff;
      }

      .cls-2 {
        fill: #c9e73a;
      }

      .cls-3 {
        fill: #611ff4;
      }

      .cls-4 {
        fill: #aea3ff;
      }
    </style>
  </defs>
  <g>
    <path class="cls-2" d="M27.37,29.07c-1.49,0-2.94,.13-4.36,.38l23.71,41.69c3.82-4.46,6.14-10.25,6.14-16.58,0-14.08-11.41-25.49-25.49-25.49Z"/>
    <path class="cls-2" d="M1.88,54.55c0,14.08,11.41,25.49,25.49,25.49,5.14,0,9.92-1.53,13.92-4.14L20.47,30.02C9.75,33.02,1.88,42.87,1.88,54.55Z"/>
  </g>
  <path class="cls-3" d="M20.47,30.02c.83-.23,1.67-.42,2.53-.57L9.24,5.26l11.23,24.76Z"/>
  <path class="cls-4" d="M96.11,114.69l3.99-10.4c-2.28,2.05-4.73,3.93-7.31,5.61l3.32,4.79Z"/>
  <g>
    <path class="cls-1" d="M20.47,30.02c.83-.23,1.67-.42,2.53-.57L9.24,5.26l11.23,24.76Z"/>
    <path class="cls-1" d="M108.98,57.27l-15.42,38.59-13.79-19.53,9.55-18.89h-10.06l-19.72,36.26-12.82-22.55c-1.57,1.83-3.4,3.44-5.43,4.77l17.62,38.84,16.32-30.19,17.57,25.34c2.58-1.69,5.03-3.56,7.31-5.61l18.02-47.02h-9.14Z"/>
  </g>
</svg>